<?xml version="1.0" encoding="utf-8"?>
<!-- Generator: Adobe Illustrator 25.1.0, SVG Export Plug-In . SVG Version: 6.00 Build 0)  -->
<svg version="1.1" id="Capa_1" xmlns="http://www.w3.org/2000/svg" xmlns:xlink="http://www.w3.org/1999/xlink" x="0px" y="0px"
	 viewBox="0 0 1920 2000" style="enable-background:new 0 0 1920 2000;" xml:space="preserve">
<style type="text/css">
	.st0{fill:#F3F3F3;}
	.st1{fill:#FFFFFF;}
</style>
<g id="Capa_2_1_">
	<g id="fondo">
		<rect x="1020" class="st0" width="900" height="2000"/>
		<g>
			<path class="st1" d="M1845.1,263.1v125.3c0,90.6-32.3,133.6-90.6,133.6c-34.4,0-59-15.1-77.9-60c-15.3,57.6-51.4,68.1-83.4,68.1
				c-63.8,0-93.7-41.6-93.7-136v-131H1845.1z M1702.1,399.4c0,28.4,12.9,55.2,43.3,55.2c29.9,0,45.7-25.1,45.7-60v-61.9h-88.9
				L1702.1,399.4z M1553.4,395.6c0,41.8,18.2,63.8,46.6,63.8c30.6,0,46.6-25.8,46.6-60v-66.7h-93.2V395.6z"/>
			<rect x="1495.4" y="556.6" class="st1" width="359.2" height="68.4"/>
			<path class="st1" d="M1545.1,775c0,23.9,9.6,43,32.8,50.2v62.9c-52.8-8.4-83.2-60-83.2-111.4c0-73.4,48.8-123.6,125.5-123.6
				c74.3,0,131.2,44.2,131.2,120c0,75.5-51.4,115.2-125.5,115.2h-18.9V722.2C1569.2,721.9,1545,741.5,1545.1,775 M1648.5,823
				c29.9,0,54-16.5,54-50.2c0-32-26.8-50.9-54-50.7V823z"/>
			<path class="st1" d="M1746.6,910.1v68.6h-34.9c18,11.2,37,32.8,37,71.7c0,45.2-25.1,86.5-86.3,86.5h-163v-69.8h154.4
				c26.8,0,40.2-18.4,40.2-41.1c0-23-12.2-46.1-36.3-46.1h-158.3v-69.8H1746.6z"/>
			<path class="st1" d="M1624.4,1157c77.5,0,126.9,34.7,126.9,98.2c0,35.4-17.2,62.6-38.2,74.6h141.5v70h-355.2v-50.7l50.7-7.9
				c-27.3-8.8-55.5-30.4-55.5-79.1C1494.6,1195.7,1542.7,1157,1624.4,1157 M1625.4,1329.8c50.4-0.5,75.3-17.2,75.3-51.9
				c0-30.4-21-52.8-75.3-52.8c-55,0-80.6,20.3-80.6,52.3C1544.8,1312.6,1567,1329.8,1625.4,1329.8"/>
		</g>
	</g>
</g>
</svg>
