<svg xmlns="http://www.w3.org/2000/svg" xmlns:xlink="http://www.w3.org/1999/xlink" viewBox="0 0 1920 2000"><defs><style>.cls-1{fill:#f3f3f3;}.cls-2{clip-path:url(#clip-path);}.cls-3{fill:#fff;}</style><clipPath id="clip-path"><rect class="cls-1" width="1920" height="2000"/></clipPath></defs><g id="Capa_2" data-name="Capa 2"><g id="Capa_2-2" data-name="Capa 2"><rect class="cls-1" width="1920" height="2000"/><g class="cls-2"><path class="cls-3" d="M1844.53,238.71V371.1c0,95.76-34.11,141.24-95.76,141.24-36.39,0-62.41-15.91-82.37-63.42-16.17,60.9-54.33,72-88.18,72-67.47,0-99-44-99-143.77V238.71Zm-151.1,144c0,30.07,13.65,58.37,45.73,58.37,31.59,0,48.26-26.53,48.26-63.42V312.23h-94Zm-157.16-4c0,44.22,19.21,67.46,49.27,67.46,32.34,0,49.27-27.29,49.27-63.42V312.23h-98.54Z"/><path class="cls-3" d="M1527.43,779.74c0,25.26,10.11,45.48,34.62,53.06v66.45c-55.84-8.85-87.93-63.42-87.93-117.75,0-77.56,51.54-130.63,132.65-130.63,78.58,0,138.71,46.75,138.71,126.84,0,79.85-54.32,121.79-132.65,121.79h-20V723.9c-39.92-.26-65.44,20.46-65.44,55.84m109.4,50.78c31.59,0,57.11-17.43,57.11-53.06,0-33.86-28.3-53.82-57.11-53.56Z"/><path class="cls-3" d="M1740.43,922.51V995h-36.89c19,11.88,39.16,34.62,39.16,75.8,0,47.76-26.53,91.47-91.21,91.47H1479.17v-73.78h163.22c28.3,0,42.45-19.45,42.45-43.46,0-24.26-12.88-48.76-38.4-48.76H1479.17V922.51Z"/><path class="cls-3" d="M1611.31,1183.49c81.87,0,134.17,36.64,134.17,103.84,0,37.4-18.19,66.2-40.42,78.84h149.57v74H1479.17v-53.56l53.57-8.34c-28.81-9.34-58.62-32.08-58.62-83.63,0-70.24,50.78-111.17,137.19-111.17m1,182.68c53.31-.51,79.59-18.2,79.59-54.83,0-32.09-22.24-55.84-79.59-55.84-58.12,0-85.15,21.47-85.15,55.33,0,37.14,23.5,55.34,85.15,55.34"/><rect class="cls-3" x="1474.95" y="548.96" width="379.68" height="72.27"/></g></g></g></svg>