<svg xmlns="http://www.w3.org/2000/svg" viewBox="0 0 26.26 17.5"><defs><style>.cls-1{fill:#97cce9;}</style></defs><g id="Capa_2" data-name="Capa 2"><g id="Capa_1-2" data-name="Capa 1"><path class="cls-1" d="M24.91,0H1.35A1.36,1.36,0,0,0,0,1.35V16.16A1.35,1.35,0,0,0,1.35,17.5H24.91a1.35,1.35,0,0,0,1.35-1.34V1.35A1.36,1.36,0,0,0,24.91,0Zm-.5,1L13.9,8.89a1.42,1.42,0,0,1-1.55,0L1.85,1ZM18.8,9.41l5.72,7.07H1.74L7.46,9.41a.51.51,0,0,0-.07-.71.5.5,0,0,0-.71.07L1,15.77V1.64l10.74,8a2.23,2.23,0,0,0,1.38.44,2.27,2.27,0,0,0,1.38-.44l10.74-8V15.77l-5.67-7a.5.5,0,0,0-.78.64Z"/></g></g></svg>