<svg xmlns="http://www.w3.org/2000/svg" viewBox="0 0 16.24 28.19"><defs><style>.cls-1{fill:#97cce9;}</style></defs><g id="Capa_2" data-name="Capa 2"><g id="Capa_1-2" data-name="Capa 1"><path class="cls-1" d="M14.18,0H2.06A2.07,2.07,0,0,0,0,2.06V26.13a2.06,2.06,0,0,0,2.06,2.06H14.18a2.06,2.06,0,0,0,2.06-2.06V2.06A2.06,2.06,0,0,0,14.18,0Zm1.24,22.41H3.72a.42.42,0,1,0,0,.83h11.7v2.89a1.25,1.25,0,0,1-1.24,1.24H2.06A1.24,1.24,0,0,1,.83,26.13V23.24H2.06a.42.42,0,1,0,0-.83H.83V4.13H15.42Zm0-19.11H.83V2.06A1.23,1.23,0,0,1,2.06.83H14.18a1.24,1.24,0,0,1,1.24,1.23Z"/><path class="cls-1" d="M9.77,1.65H8.12a.42.42,0,0,0,0,.83H9.77a.42.42,0,1,0,0-.83Z"/><path class="cls-1" d="M8.12,24.06a1.24,1.24,0,0,0,0,2.48,1.24,1.24,0,0,0,0-2.48Zm0,1.66a.41.41,0,0,1-.41-.42.41.41,0,0,1,.41-.41.41.41,0,0,1,.42.41A.42.42,0,0,1,8.12,25.72Z"/><circle class="cls-1" cx="6.47" cy="2.06" r="0.41"/></g></g></svg>