<svg xmlns="http://www.w3.org/2000/svg" viewBox="0 0 18.04 22.76"><defs><style>.cls-1{fill:#97cce9;}</style></defs><g id="Capa_2" data-name="Capa 2"><g id="Capa_1-2" data-name="Capa 1"><path class="cls-1" d="M14.17,18.35a14.83,14.83,0,0,0,3.35-5.3,10.54,10.54,0,0,0-3-11.1,8.73,8.73,0,0,0-11,0A9.86,9.86,0,0,0,.43,6.8a10.36,10.36,0,0,0,0,5.76A16.2,16.2,0,0,0,4.48,18.9l.93.92c1,.95,2.06,1.84,3.08,2.68a.69.69,0,0,0,1.08,0C10.57,21.68,14,18.54,14.17,18.35ZM9,21.64C5.89,19.05,2.49,16,1.36,12.26a9.23,9.23,0,0,1,0-5.18A8.79,8.79,0,0,1,4.17,2.73a7.73,7.73,0,0,1,9.72,0,8.78,8.78,0,0,1,2.8,4.58,9.57,9.57,0,0,1-.12,5.42C15.31,16.44,12,19.2,9,21.64Z"/><path class="cls-1" d="M11.76,14.52a.51.51,0,0,0-.43-.92,5.38,5.38,0,0,1-2.26.53A5.17,5.17,0,1,1,14.23,9a5,5,0,0,1-.41,2,.51.51,0,0,0,.93.4A6.09,6.09,0,0,0,15.24,9a6.18,6.18,0,1,0-6.17,6.17A6.55,6.55,0,0,0,11.76,14.52Z"/><path class="cls-1" d="M13.2,12.33a.51.51,0,1,0,.5.53A.5.5,0,0,0,13.2,12.33Z"/></g></g></svg>