<svg xmlns="http://www.w3.org/2000/svg" viewBox="0 0 104.55 30.54"><defs><style>.cls-1{fill:#fff;}</style></defs><g id="Capa_2" data-name="Capa 2"><g id="Capa_1-2" data-name="Capa 1"><path class="cls-1" d="M0,.81H10.62C18.31.81,22,3.55,22,8.5c0,2.92-1.28,5-5.09,6.61,4.89,1.29,5.78,4.36,5.78,7.07,0,5.42-3.53,8-11.54,8H0ZM11.56,12.94c2.41,0,4.68-1.1,4.68-3.67s-2.13-3.88-5.09-3.88H5.9v7.55Zm-.33,12.61c3.55,0,5.42-1.54,5.42-4,0-2.59-2.19-3.95-5.09-3.95H5.9v7.91Z"/><path class="cls-1" d="M43.42,26.26c2,0,3.65-.81,4.26-2.78H53c-.71,4.48-5.09,7.06-9.45,7.06-6.23,0-10.48-4.14-10.48-10.65,0-6.3,3.75-11.13,10.17-11.13S53,13.12,53,19.4V21H38.94C38.92,24.21,40.58,26.26,43.42,26.26Zm4.07-8.78c0-2.54-1.4-4.58-4.26-4.58a4.34,4.34,0,0,0-4.29,4.58Z"/><path class="cls-1" d="M54.87,9.16h5.82v3A6.76,6.76,0,0,1,66.78,9c3.83,0,7.34,2.13,7.34,7.32V30.13H68.2V17a3.22,3.22,0,0,0-3.49-3.4c-1.95,0-3.92,1-3.92,3.08V30.13H54.87Z"/><path class="cls-1" d="M75.82,19.53c0-6.57,2.94-10.77,8.33-10.77A7.19,7.19,0,0,1,90.48,12V0h5.94V30.13h-4.3l-.67-4.3a6.48,6.48,0,0,1-6.71,4.71C79.1,30.54,75.82,26.46,75.82,19.53Zm14.66-.09c0-4.27-1.46-6.38-4.4-6.38-2.58,0-4.48,1.78-4.48,6.38s1.72,6.84,4.44,6.84C89,26.28,90.48,24.39,90.48,19.44Z"/><rect class="cls-1" x="24.9" width="5.8" height="30.47"/><path class="cls-1" d="M98.62,27.58a3,3,0,1,1,3,3A3,3,0,0,1,98.62,27.58Zm5.12,0a2.16,2.16,0,1,0-4.32,0,2.16,2.16,0,1,0,4.32,0Zm-3.35-1.45h1.38c.7,0,1.12.27,1.12.78a.83.83,0,0,1-.59.79l.58,1.37h-.81l-.44-1.29h-.51v1.29h-.73Zm1.35,1.13c.22,0,.39-.1.39-.3s-.15-.32-.43-.32h-.58v.62Z"/></g></g></svg>