<svg xmlns="http://www.w3.org/2000/svg" viewBox="0 0 380.51 1201.46"><defs><style>.b9d11dd5-f778-4788-ba23-6035eadd5cf8{fill:#0c1016;}</style></defs><title>Recurso 1linkedin</title><g id="a43118a8-004c-437b-bfc2-2e8f4fa4439d" data-name="Capa 2"><g id="bfb1b3e0-9ce3-4187-b3e7-4a0b2fdcf1ff" data-name="Capa 1"><g id="fa70f5a8-d742-40b1-874b-299a9907e516" data-name="Capa 2"><g id="bcca261c-12e8-41bb-94de-a7bbdf448385" data-name="Capa 1-2"><path class="b9d11dd5-f778-4788-ba23-6035eadd5cf8" d="M370.41,0V132.4c0,95.76-34.11,141.24-95.76,141.24-36.39,0-62.41-15.92-82.37-63.42-16.17,60.89-54.32,72-88.18,72-67.46,0-99-44-99-143.77V0ZM219.31,144c0,30.07,13.65,58.37,45.74,58.37,31.58,0,48.26-26.53,48.26-63.42V73.52h-94ZM62.15,140c0,44.21,19.21,67.46,49.27,67.46,32.35,0,49.28-27.29,49.28-63.42V73.52H62.15Z"/><path class="b9d11dd5-f778-4788-ba23-6035eadd5cf8" d="M53.31,541c0,25.27,10.11,45.48,34.62,53.06v66.45C32.09,651.7,0,597.12,0,542.8c0-77.57,51.54-130.63,132.65-130.63,78.58,0,138.71,46.74,138.71,126.84,0,79.84-54.32,121.79-132.65,121.79h-20V485.19C78.83,484.94,53.31,505.65,53.31,541Zm109.41,50.78c31.58,0,57.1-17.43,57.1-53.06,0-33.85-28.3-53.81-57.1-53.56Z"/><path class="b9d11dd5-f778-4788-ba23-6035eadd5cf8" d="M266.31,683.8v72.52H229.42c19,11.87,39.16,34.61,39.16,75.8,0,47.75-26.53,91.46-91.21,91.46H5.05V849.81H168.27c28.3,0,42.45-19.46,42.45-43.46,0-24.26-12.88-48.77-38.4-48.77H5.05V683.8Z"/><path class="b9d11dd5-f778-4788-ba23-6035eadd5cf8" d="M137.2,944.78c81.86,0,134.16,36.64,134.16,103.85,0,37.39-18.19,66.19-40.42,78.83H380.51v74H5.05v-53.57l53.57-8.33C29.81,1130.24,0,1107.5,0,1056,0,985.71,50.79,944.78,137.2,944.78Zm1,182.68c53.31-.5,79.59-18.19,79.59-54.83,0-32.09-22.24-55.84-79.59-55.84-58.12,0-85.15,21.48-85.15,55.33,0,37.15,23.51,55.34,85.16,55.34Z"/><rect class="b9d11dd5-f778-4788-ba23-6035eadd5cf8" x="0.83" y="310.25" width="379.68" height="72.27"/></g></g></g></g></svg>